<svg xmlns="http://www.w3.org/2000/svg" xmlns:xlink="http://www.w3.org/1999/xlink" width="500" zoomAndPan="magnify" viewBox="0 0 375 374.999991" height="500" preserveAspectRatio="xMidYMid meet" version="1.0"><defs><clipPath id="00e9632fe8"><path d="M 301 79 L 373.5 79 L 373.5 212 L 301 212 Z M 301 79 " clip-rule="nonzero"/></clipPath></defs><g clip-path="url(#00e9632fe8)"><path fill="#e0d2cd" d="M 352.917969 79.792969 C 341.570312 79.792969 332.363281 88.980469 332.355469 100.316406 L 332.347656 111.042969 C 332.339844 122.382812 323.136719 131.570312 311.789062 131.570312 L 301.820312 131.570312 L 301.847656 211.023438 C 351.234375 211.023438 373.476562 171.027344 373.476562 121.691406 L 373.476562 100.332031 C 373.476562 88.988281 364.269531 79.792969 352.917969 79.792969 Z M 352.917969 79.792969 " fill-opacity="1" fill-rule="nonzero"/></g><path fill="#f2e9e7" d="M 61.710938 131.570312 C 50.363281 131.570312 41.160156 122.382812 41.152344 111.042969 L 41.144531 100.316406 C 41.136719 88.980469 31.929688 79.792969 20.582031 79.792969 C 9.230469 79.792969 0.0234375 88.988281 0.0234375 100.332031 L 0.0234375 121.691406 C 0.0234375 171.027344 24.507812 211.023438 73.890625 211.023438 L 73.890625 131.570312 Z M 61.710938 131.570312 " fill-opacity="1" fill-rule="nonzero"/><path fill="#fff4f4" d="M 187.882812 0.207031 C 119 0.207031 62.957031 56.195312 62.957031 125.003906 L 62.957031 332.636719 C 62.957031 343.257812 68.75 353.03125 78.070312 358.140625 C 87.394531 363.25 98.757812 362.875 107.726562 357.167969 L 107.800781 357.117188 C 110.144531 355.628906 113.175781 355.621094 115.53125 357.101562 L 134.246094 368.882812 C 143.675781 374.816406 155.859375 374.816406 165.289062 368.886719 L 184.066406 357.066406 C 186.402344 355.59375 189.425781 355.597656 191.761719 357.066406 L 210.535156 368.882812 C 215.25 371.847656 220.652344 373.332031 226.058594 373.332031 C 231.460938 373.332031 236.863281 371.847656 241.578125 368.882812 L 260.292969 357.105469 C 262.644531 355.628906 265.679688 355.632812 268.019531 357.125 C 276.988281 362.847656 288.355469 363.226562 297.683594 358.117188 C 307.011719 353.007812 312.808594 343.234375 312.808594 332.605469 L 312.808594 125.003906 C 312.804688 56.195312 256.765625 0.207031 187.882812 0.207031 Z M 187.882812 0.207031 " fill-opacity="1" fill-rule="nonzero"/><path fill="#f2e9e7" d="M 191.761719 357.066406 L 210.535156 368.882812 C 215.25 371.847656 220.652344 373.332031 226.058594 373.332031 C 231.460938 373.332031 236.863281 371.847656 241.578125 368.882812 L 260.292969 357.105469 C 262.644531 355.625 265.679688 355.632812 268.019531 357.125 C 276.988281 362.847656 288.355469 363.222656 297.683594 358.117188 C 307.011719 353.007812 312.808594 343.234375 312.808594 332.605469 L 312.808594 125.003906 C 312.804688 56.195312 256.765625 0.207031 187.882812 0.207031 L 187.882812 355.964844 C 189.230469 355.957031 190.582031 356.324219 191.761719 357.066406 Z M 191.761719 357.066406 " fill-opacity="1" fill-rule="nonzero"/><path fill="#132c63" d="M 157.847656 124.441406 C 157.847656 130.476562 152.945312 135.378906 146.898438 135.378906 C 140.847656 135.378906 135.949219 130.476562 135.949219 124.441406 C 135.949219 118.398438 140.847656 113.496094 146.898438 113.496094 C 152.945312 113.496094 157.847656 118.398438 157.847656 124.441406 Z M 157.847656 124.441406 " fill-opacity="1" fill-rule="nonzero"/><path fill="#9bfcff" d="M 260.316406 123.398438 C 260.316406 138.15625 248.339844 150.121094 233.566406 150.121094 C 218.792969 150.121094 206.820312 138.15625 206.820312 123.398438 C 206.820312 108.640625 218.792969 96.679688 233.566406 96.679688 C 248.339844 96.679688 260.316406 108.640625 260.316406 123.398438 Z M 260.316406 123.398438 " fill-opacity="1" fill-rule="nonzero"/><path fill="#000f35" d="M 233.566406 161.058594 C 212.777344 161.058594 195.863281 144.164062 195.863281 123.398438 C 195.863281 102.632812 212.777344 85.738281 233.566406 85.738281 C 254.351562 85.738281 271.265625 102.632812 271.265625 123.398438 C 271.265625 144.164062 254.351562 161.058594 233.566406 161.058594 Z M 233.566406 107.617188 C 224.855469 107.617188 217.769531 114.695312 217.769531 123.398438 C 217.769531 132.101562 224.855469 139.183594 233.566406 139.183594 C 242.277344 139.183594 249.363281 132.101562 249.363281 123.398438 C 249.363281 114.695312 242.277344 107.617188 233.566406 107.617188 Z M 233.566406 107.617188 " fill-opacity="1" fill-rule="nonzero"/><path fill="#ff9ac9" d="M 217.917969 180.109375 L 157.847656 180.109375 C 151.800781 180.109375 146.898438 185.007812 146.898438 191.050781 L 146.898438 224.710938 C 146.898438 247.289062 165.28125 265.65625 187.882812 265.65625 C 210.480469 265.65625 228.867188 247.289062 228.867188 224.710938 L 228.867188 191.050781 C 228.867188 185.007812 223.964844 180.109375 217.917969 180.109375 Z M 217.917969 180.109375 " fill-opacity="1" fill-rule="nonzero"/><path fill="#ff5ca8" d="M 217.917969 180.109375 L 187.882812 180.109375 L 187.882812 265.65625 C 210.480469 265.65625 228.867188 247.289062 228.867188 224.710938 L 228.867188 191.050781 C 228.867188 185.007812 223.964844 180.109375 217.917969 180.109375 Z M 217.917969 180.109375 " fill-opacity="1" fill-rule="nonzero"/></svg>